<?xml version="1.0" standalone="no"?>
<!DOCTYPE svg PUBLIC "-//W3C//DTD SVG 20010904//EN"
 "http://www.w3.org/TR/2001/REC-SVG-20010904/DTD/svg10.dtd">
<svg version="1.0" xmlns="http://www.w3.org/2000/svg"
 width="1773.000000pt" height="1781.000000pt" viewBox="0 0 1773.000000 1781.000000"
 preserveAspectRatio="xMidYMid meet">

<g transform="translate(0.000000,1781.000000) scale(0.100000,-0.100000)"
fill="#000000" stroke="none">
<path d="M0 8905 l0 -8905 8865 0 8865 0 0 8905 0 8905 -8865 0 -8865 0 0
-8905z m4570 8570 c161 -27 201 -61 293 -255 126 -265 208 -350 422 -439 148
-62 215 -121 250 -222 23 -64 27 -722 5 -713 -83 37 -129 46 -220 42 -78 -3
-105 -9 -152 -32 -92 -44 -161 -114 -211 -214 l-42 -85 0 -123 0 -122 -115 -5
c-216 -9 -250 -31 -521 -352 -96 -114 -841 -855 -919 -913 -129 -97 -230 -225
-311 -394 -13 -27 -26 -48 -31 -48 -4 0 -23 -14 -43 -31 -20 -18 -71 -44 -117
-60 -235 -82 -359 -259 -346 -491 l5 -87 -111 0 c-118 0 -164 -10 -242 -56
-74 -43 -153 -131 -192 -213 -33 -69 -36 -84 -36 -161 0 -68 6 -102 27 -160
14 -41 25 -76 23 -78 -2 -2 -50 4 -107 14 -77 12 -171 17 -359 18 -276 2 -303
6 -378 57 -48 33 -68 68 -107 188 -41 127 -82 196 -165 281 -68 69 -88 82
-212 142 -209 100 -271 177 -287 350 -21 231 32 333 239 460 52 32 123 80 156
107 107 85 192 239 230 418 l18 82 55 16 c161 45 198 58 283 101 106 53 191
130 225 204 29 62 46 163 38 227 -8 61 -78 209 -240 502 -123 223 -133 248
-142 345 -7 90 12 158 68 245 50 78 529 561 604 609 70 45 143 64 229 59 96
-4 176 -45 366 -184 178 -131 301 -214 358 -243 133 -68 288 -33 416 94 67 66
109 139 150 260 15 44 39 110 52 146 l25 66 85 17 c111 22 190 54 270 111 85
61 150 140 215 265 88 167 155 227 281 255 83 18 106 18 218 0z m3065 -1000
c49 -20 200 -78 335 -127 318 -117 342 -128 421 -207 114 -115 160 -246 139
-397 -14 -103 -44 -171 -140 -315 -46 -68 -144 -223 -218 -344 -74 -121 -157
-251 -185 -290 -29 -40 -405 -425 -864 -887 -447 -450 -813 -821 -813 -825 0
-5 1498 -1509 3330 -3343 l3329 -3335 868 866 c844 842 872 869 1003 959 74
51 191 137 260 190 294 229 364 270 492 291 77 12 183 -4 264 -41 49 -22 87
-50 144 -107 86 -87 101 -113 220 -383 43 -96 105 -236 139 -310 33 -75 71
-175 83 -222 l23 -87 -29 -88 c-37 -114 -185 -472 -242 -588 -66 -133 -160
-255 -306 -395 -72 -69 -313 -309 -536 -535 -223 -225 -508 -511 -634 -635
-126 -124 -956 -952 -1846 -1840 -954 -953 -1652 -1643 -1702 -1682 -93 -72
-221 -145 -352 -201 -46 -20 -146 -62 -224 -95 -186 -80 -274 -106 -327 -99
-23 4 -109 34 -192 67 -82 33 -231 90 -330 126 -224 83 -302 123 -382 198
-154 144 -195 378 -99 569 18 36 92 155 164 264 71 109 158 248 193 308 160
281 121 238 1239 1351 l695 692 -2795 2796 c-1537 1538 -3042 3040 -3344 3339
l-549 542 -911 -916 c-793 -797 -924 -924 -1011 -984 -126 -87 -286 -205 -437
-322 -207 -161 -278 -193 -424 -193 -139 0 -233 40 -347 149 -79 75 -106 123
-258 457 -190 418 -194 428 -194 504 0 77 49 218 171 495 97 218 149 316 223
418 79 109 114 140 190 171 95 38 204 110 254 167 24 27 68 93 98 146 49 86
69 110 209 242 85 80 205 195 266 256 103 102 115 118 158 210 82 176 71 163
162 194 45 15 99 39 120 52 21 13 412 399 869 857 577 581 862 860 937 918
175 138 233 219 272 376 l23 93 75 21 c41 12 95 31 119 41 65 29 160 112 246
216 42 51 132 150 200 220 98 100 150 144 236 201 139 90 208 163 272 287 26
52 61 111 77 131 71 91 363 242 753 390 174 66 182 68 255 65 58 -3 95 -12
165 -42z m8240 -10802 c73 -12 171 -17 360 -18 227 -1 265 -3 303 -19 67 -29
113 -90 161 -216 48 -126 120 -240 189 -300 26 -23 111 -73 191 -112 79 -39
161 -86 182 -105 86 -78 125 -192 116 -343 -9 -172 -57 -259 -195 -353 -230
-158 -291 -218 -357 -354 -19 -39 -42 -105 -51 -145 -31 -140 -35 -143 -159
-177 -198 -54 -355 -163 -417 -289 -29 -59 -33 -76 -33 -147 0 -73 4 -87 39
-154 21 -41 98 -171 170 -290 172 -280 191 -314 212 -386 31 -109 6 -255 -61
-353 -14 -20 -164 -176 -333 -345 -289 -290 -312 -311 -388 -348 -126 -63
-226 -64 -349 -2 -27 13 -104 65 -170 114 -176 130 -391 278 -459 313 -83 43
-137 42 -239 -8 -114 -55 -191 -134 -249 -256 -25 -52 -61 -135 -79 -185 -39
-108 -51 -123 -98 -131 -135 -22 -278 -86 -360 -160 -49 -44 -123 -145 -180
-246 -47 -84 -114 -153 -179 -185 -54 -27 -63 -28 -202 -28 -145 0 -146 0
-213 33 -84 42 -121 87 -200 243 -104 206 -170 268 -391 366 -156 70 -199 102
-234 172 l-27 56 -7 345 c-4 190 -10 363 -14 384 -6 36 -5 38 12 31 70 -29
155 -46 220 -43 62 3 84 10 158 47 110 56 173 118 223 218 38 77 38 78 38 200
0 106 2 122 15 117 8 -3 44 -8 80 -11 216 -17 442 167 514 418 16 54 21 60
149 165 178 146 373 331 482 457 50 57 115 123 145 148 197 160 283 244 352
343 41 59 87 171 88 213 0 44 10 53 59 53 196 0 342 80 451 246 66 101 83 161
78 284 l-3 101 40 -8 c63 -13 166 -8 226 11 117 37 233 150 279 273 31 83 26
240 -12 331 l-26 63 26 -5 c15 -4 72 -14 127 -23z"/>
</g>
</svg>
