<svg width="256" height="256" viewBox="0 0 256 256" fill="none" xmlns="http://www.w3.org/2000/svg">
  <defs>
    <linearGradient id="gradient" x1="0" y1="0" x2="1" y2="1">
      <stop offset="0%" stop-color="#2BF97C"/>
      <stop offset="100%" stop-color="#00FF8C"/>
    </linearGradient>
  </defs>
  <rect width="256" height="256" rx="32" fill="#060B16"/>
  <rect x="48" y="104" width="160" height="48" rx="24" fill="url(#gradient)"/>
  <path d="M30 92H54V164H30V140H42V116H30V92Z" fill="url(#gradient)"/>
  <path d="M226 92H202V164H226V140H214V116H226V92Z" fill="url(#gradient)"/>
  <path d="M32 92L44 76H58L70 92V164L58 180H44L32 164V92Z" fill="url(#gradient)" opacity="0.7"/>
  <path d="M224 92L212 76H198L186 92V164L198 180H212L224 164V92Z" fill="url(#gradient)" opacity="0.7"/>
</svg>
