<svg width="1200" height="630" viewBox="0 0 1200 630" fill="none" xmlns="http://www.w3.org/2000/svg">
  <defs>
    <linearGradient id="heroGradient" x1="0" y1="0" x2="1" y2="1">
      <stop offset="0%" stop-color="#2BF97C" />
      <stop offset="100%" stop-color="#00FF8C" />
    </linearGradient>
    <linearGradient id="shadowGradient" x1="0" y1="0" x2="0" y2="1">
      <stop offset="0%" stop-color="#00FF8C" stop-opacity="0.2" />
      <stop offset="100%" stop-color="#000000" stop-opacity="0" />
    </linearGradient>
  </defs>
  <rect width="1200" height="630" rx="40" fill="#060B16" />
  <circle cx="600" cy="315" r="260" fill="url(#shadowGradient)" />
  <g transform="translate(250 160)">
    <rect x="0" y="80" width="700" height="90" rx="45" fill="url(#heroGradient)" />
    <g transform="translate(-40 -70)">
      <path d="M0 110H80V220H0V110Z" fill="url(#heroGradient)" />
      <path d="M720 110H800V220H720V110Z" fill="url(#heroGradient)" />
      <path d="M0 110L55 30H95L150 110V220L95 300H55L0 220V110Z" fill="url(#heroGradient)" opacity="0.8" />
      <path d="M800 110L745 30H705L650 110V220L705 300H745L800 220V110Z" fill="url(#heroGradient)" opacity="0.8" />
    </g>
  </g>
  <text x="600" y="500" text-anchor="middle" fill="#FFFFFF" font-family="Inter, sans-serif" font-size="60" font-weight="800">PlateStack</text>
  <text x="600" y="560" text-anchor="middle" fill="#8BBACF" font-family="Inter, sans-serif" font-size="28">Barbell plate calculator</text>
</svg>
